<svg width="170" height="55" viewBox="0 0 170 55" fill="none" xmlns="http://www.w3.org/2000/svg">
<path d="M76.9831 43.2609C76.6207 43.2609 76.3744 43.1594 76.2381 42.9623C76.1251 42.7623 76.07 42.429 76.07 41.9623L76.0845 35.9156C74.8786 37.1504 73.8032 37.7823 72.1828 38.4056V39.9651C72.1828 41.0521 71.6756 41.9072 70.661 42.5304C69.8262 43.0203 68.8928 43.2638 67.8551 43.2638C66.9768 43.2638 66.2115 43.1072 65.5564 42.7971C64.6984 42.397 64.2723 41.8115 64.2723 41.0318C64.2723 39.4549 65.3303 38.5012 67.4493 38.1679C69.7044 37.9475 71.2813 37.6258 72.1828 37.2026C72.9945 36.9127 73.7945 36.4489 74.583 35.8025C75.4613 35.0489 75.9569 34.3155 76.07 33.6053V33.072C76.07 31.3617 75.325 30.0631 73.8409 29.1761C72.5771 28.4224 70.977 28.0427 69.0407 28.0427C66.8087 28.0427 65.0289 28.4427 63.7012 29.2428C62.078 30.2196 61.1997 31.7415 61.0634 33.8053H64.9158C65.0955 31.9618 66.3912 31.04 68.803 31.04C71.2147 31.04 72.4205 31.8284 72.4205 33.4053C72.4205 34.3619 71.9017 34.9822 70.8639 35.2721C70.5016 35.3619 69.9392 35.4489 69.174 35.5387C68.2493 35.6489 67.5855 35.7504 67.1797 35.8373C65.0607 36.0808 63.5302 36.4808 62.5824 37.0374C61.1388 37.9041 60.4199 39.2897 60.4199 41.1999C60.4199 42.8203 61.0287 44.087 62.2461 44.9972C63.3505 45.8407 64.7477 46.2639 66.4376 46.2639C69.0291 46.2639 71.0466 45.5653 72.4872 44.1653C72.7568 45.5653 73.7597 46.2639 75.496 46.2639C76.2845 46.2639 77.0961 46.119 77.928 45.8291V43.2C77.6585 43.2435 77.4788 43.2667 77.386 43.2667H76.9831V43.2609ZM88.3228 28.0398C86.9923 28.0398 84.9139 28.5558 83.9457 29.0862V32.2168C84.7342 31.5965 86.6444 31.0342 87.8155 31.0342C89.3257 31.0342 90.5316 31.6661 91.4331 32.9328C92.2447 34.0865 92.6505 35.4982 92.6505 37.162C92.6505 38.8491 92.2882 40.2375 91.5693 41.3245C90.691 42.5884 89.4388 43.2232 87.8155 43.2232C86.2821 43.2232 85.0675 42.6464 84.166 41.4898C83.308 40.3796 82.8819 38.936 82.8819 37.162V28.5036H79.1629V52.1512H83.0153V43.5246H83.0819C84.2095 45.345 86.169 46.2552 88.9634 46.2552C91.3954 46.2552 93.2998 45.3334 94.6738 43.4899C95.8913 41.826 96.5 39.7389 96.5 37.2287C96.5 34.5445 95.8246 32.3791 94.4709 30.7356C93.01 28.9384 90.9606 28.0398 88.3228 28.0398ZM110.947 37.0664C110.112 36.4895 108.817 35.9996 107.06 35.5996C104.831 35.1329 103.532 34.8344 103.173 34.701C101.979 34.2778 101.381 33.6575 101.381 32.8371C101.381 31.6603 102.442 31.0718 104.558 31.0718C106.608 31.0718 107.793 31.84 108.109 33.3705H112.13C111.927 31.5501 111.104 30.1848 109.663 29.2747C108.402 28.4746 106.79 28.0746 104.831 28.0746C102.915 28.0746 101.303 28.4311 99.9958 29.1413C98.3523 30.008 97.5261 31.2951 97.5261 33.0053C97.5261 34.5822 98.1117 35.7938 99.2856 36.6345C100.097 37.2345 101.381 37.7215 103.138 38.1012C105.48 38.6345 106.776 38.9447 107.025 39.0346C108.196 39.4549 108.805 40.1013 108.851 40.9651C108.918 42.4753 107.622 43.229 104.964 43.229C102.529 43.229 101.213 42.2289 101.01 40.2317H97.1551C97.1986 42.1854 97.9551 43.6957 99.419 44.7624C100.77 45.7392 102.596 46.2262 104.895 46.2262C106.99 46.2262 108.75 45.803 110.167 44.9595C111.857 43.9624 112.704 42.5188 112.704 40.6288C112.704 39.0954 112.118 37.9099 110.947 37.0664ZM120.313 42.9275C119.501 42.9391 118.971 42.7275 118.724 42.3275C118.545 42.0376 118.455 41.4521 118.455 40.5622V31.3704H121.936V28.5384H118.455V23.3758H114.602V28.5384H111.695L112.794 31.3704H114.602V41.5303C114.649 43.1072 114.962 44.1942 115.547 44.7943C116.246 45.5479 117.542 45.9248 119.434 45.9248C119.974 45.9248 120.808 45.8581 121.936 45.7277L121.153 42.8463C120.788 42.9333 120.617 42.9217 120.313 42.9275ZM129.6 28.0398C127.707 28.0398 126.061 28.5616 124.664 29.6051C123.333 30.582 122.133 32.4197 121.524 34.0836H125.243C126.174 32.1241 126.977 31.0487 129.6 31.0371C130.838 31.0313 131.876 31.4921 132.711 32.4023C133.453 33.269 133.803 34.2227 133.893 35.4895L121.2 35.4518C121.133 36.0083 121.098 36.5185 121.098 36.9852C121.098 39.7158 121.881 42.0057 123.348 43.6261C124.878 45.3132 126.997 46.1567 129.702 46.1567C131.638 46.1567 133.319 45.6465 134.737 44.6262C136.247 43.5826 137.192 42.1391 137.575 40.2955H133.925C133.25 42.2058 131.841 43.1594 129.702 43.1594C128.168 43.1594 126.986 42.6493 126.154 41.626C125.388 40.7158 124.951 39.4143 124.951 37.9475H137.76C138.099 35.3068 137.543 33.1096 135.989 31.1356C134.389 29.0717 132.258 28.0398 129.6 28.0398ZM152.265 21.9786V30.7704H152.198C151.071 28.9703 149.132 28.0717 146.384 28.0717C144.288 28.0717 142.554 28.7848 141.178 30.2051C139.601 31.8052 138.812 34.0807 138.812 37.0316C138.812 39.7419 139.488 41.9043 140.841 43.5275C142.282 45.3044 144.331 46.1915 146.992 46.1915C148.277 46.1915 150.39 45.4407 151.358 44.9073V41.71C150.569 42.3767 148.624 43.1942 147.497 43.1942C145.92 43.1942 144.694 42.5855 143.813 41.3622C143.047 40.2955 142.665 38.9534 142.665 37.333C142.665 35.5793 143.024 34.1474 143.746 33.0372C144.624 31.727 145.897 31.0718 147.566 31.0718C149.053 31.0718 150.224 31.6052 151.082 32.6719C151.961 33.7387 152.398 35.2257 152.398 37.1359L152.404 37.3823L152.398 45.7306H156.083V21.9815H152.265V21.9786Z" fill="#231F20"/>
<mask id="mask0_224_25227" style="mask-type:luminance" maskUnits="userSpaceOnUse" x="43" y="16" width="18" height="39">
<path d="M43.8262 28.8316L48.3337 46.6644C48.3337 46.6644 50.7425 56.4736 60.4618 54.5518L53.3107 24.6227C53.3107 24.6227 51.6498 18.4978 46.9278 16.5615L43.8262 28.8316Z" fill="white"/>
</mask>
<g mask="url(#mask0_224_25227)">
<path d="M60.4618 16.561H43.8262V56.4761H60.4618V16.561Z" fill="url(#paint0_linear_224_25227)"/>
</g>
<mask id="mask1_224_25227" style="mask-type:luminance" maskUnits="userSpaceOnUse" x="30" y="16" width="17" height="39">
<path d="M34.3582 24.6491L30.2305 41.6499L33.1582 53.7549L33.2538 54.0911C38.0106 52.4099 39.3324 46.6937 39.3324 46.6937L46.953 16.5617C45.782 16.1762 44.7066 16.0081 43.7239 16.0081C36.6917 16.0081 34.3582 24.6491 34.3582 24.6491Z" fill="white"/>
</mask>
<g mask="url(#mask1_224_25227)">
<path d="M46.953 16.0081H30.2305V54.094H46.953V16.0081Z" fill="url(#paint1_linear_224_25227)"/>
</g>
<mask id="mask2_224_25227" style="mask-type:luminance" maskUnits="userSpaceOnUse" x="16" y="16" width="18" height="39">
<path d="M16.6328 28.79L21.1432 46.6257C21.1432 46.6257 23.4969 56.716 33.2597 54.0956L26.1202 24.5811C26.1202 24.5811 24.4622 18.4561 19.7373 16.5227L16.6328 28.79Z" fill="white"/>
</mask>
<g mask="url(#mask2_224_25227)">
<path d="M31.6079 11.5494L45.2752 52.7253L18.2826 61.6852L4.61523 20.5092L31.6079 11.5494Z" fill="url(#paint2_linear_224_25227)"/>
</g>
<mask id="mask3_224_25227" style="mask-type:luminance" maskUnits="userSpaceOnUse" x="0" y="15" width="20" height="40">
<path d="M7.15109 24.5814L0 54.5133C9.71643 56.4352 12.1281 46.626 12.1281 46.626L19.7459 16.4911C18.5749 16.1056 17.4994 15.9375 16.5168 15.9375C9.48454 15.9404 7.15109 24.5814 7.15109 24.5814Z" fill="white"/>
</mask>
<g mask="url(#mask3_224_25227)">
<path d="M-12.1172 52.4104L1.95888 10.0315L31.8589 19.9624L17.78 62.3414L-12.1172 52.4104Z" fill="url(#paint3_linear_224_25227)"/>
</g>
<mask id="mask4_224_25227" style="mask-type:luminance" maskUnits="userSpaceOnUse" x="10" y="0" width="18" height="12">
<path d="M25.6967 0.423216C23.256 1.73053 19.4848 2.18272 15.702 3.58859C11.9192 4.99446 10.2988 11.3252 10.2988 11.3252C10.838 10.3889 14.8904 10.2701 14.8904 10.2701C22.4531 9.56859 24.3836 4.35674 25.659 1.90154C26.4301 0.417412 27.0214 0.0144899 27.0214 0.0144899C27.0214 0.0144899 26.9866 0 26.9084 0C26.7431 0 26.3779 0.0579803 25.6967 0.423216Z" fill="white"/>
</mask>
<g mask="url(#mask4_224_25227)">
<path d="M6.70117 1.29074L25.1166 -5.3125L30.6212 10.0361L12.2058 16.6393L6.70117 1.29074Z" fill="url(#paint4_linear_224_25227)"/>
</g>
<path fill-rule="evenodd" clip-rule="evenodd" d="M165.069 31.8545C162.347 31.8748 160.133 29.6776 160.11 26.9354C160.086 24.2483 162.301 22.0047 164.994 21.9902C167.768 21.9729 169.997 24.1643 170 26.9093C170 29.6428 167.817 31.8342 165.069 31.8545ZM169.003 26.9383C169.023 24.7846 167.266 22.9874 165.11 22.9613C162.918 22.9323 161.101 24.7266 161.095 26.9267C161.089 29.066 162.881 30.8689 165.026 30.8776C167.211 30.8892 168.982 29.1355 169.003 26.9383Z" fill="black"/>
<path fill-rule="evenodd" clip-rule="evenodd" d="M166.524 27.0399C167.341 27.5964 167.017 28.4718 167.263 29.2139C166.863 29.2139 166.501 29.2139 166.077 29.2139C166.04 28.9385 165.996 28.6573 165.967 28.3762C165.901 27.695 165.709 27.5153 165.019 27.5095C164.814 27.5095 164.611 27.5095 164.358 27.5095C164.358 28.0921 164.358 28.6313 164.358 29.2081C163.941 29.2081 163.57 29.2081 163.176 29.2081C163.176 27.666 163.176 26.15 163.176 24.576C163.532 24.576 163.866 24.576 164.199 24.576C164.666 24.576 165.129 24.5644 165.596 24.5789C165.816 24.5847 166.043 24.6166 166.257 24.6774C166.703 24.8021 167.037 25.0775 167.132 25.547C167.237 26.063 167.159 26.5413 166.709 26.8949C166.66 26.9326 166.608 26.9732 166.524 27.0399ZM164.367 26.5703C164.747 26.5703 165.109 26.5935 165.472 26.5645C165.782 26.5384 165.95 26.3355 165.956 26.0688C165.961 25.8021 165.793 25.5934 165.483 25.5673C165.124 25.5383 164.758 25.5615 164.37 25.5615C164.367 25.9036 164.367 26.2166 164.367 26.5703Z" fill="black"/>
<defs>
<linearGradient id="paint0_linear_224_25227" x1="52.1429" y1="42.4219" x2="52.1429" y2="26.245" gradientUnits="userSpaceOnUse">
<stop stop-color="#EF5123"/>
<stop offset="1" stop-color="#4E461C"/>
</linearGradient>
<linearGradient id="paint1_linear_224_25227" x1="38.5917" y1="40.59" x2="38.5917" y2="24.5767" gradientUnits="userSpaceOnUse">
<stop stop-color="#184722"/>
<stop offset="1" stop-color="#77BF43"/>
</linearGradient>
<linearGradient id="paint2_linear_224_25227" x1="21.3524" y1="25.7938" x2="29.5978" y2="50.6328" gradientUnits="userSpaceOnUse">
<stop stop-color="#056438"/>
<stop offset="1" stop-color="#39B671"/>
</linearGradient>
<linearGradient id="paint3_linear_224_25227" x1="5.77199" y1="48.5215" x2="13.535" y2="25.1517" gradientUnits="userSpaceOnUse">
<stop stop-color="#06486D"/>
<stop offset="1" stop-color="#5AC8E5"/>
</linearGradient>
<linearGradient id="paint4_linear_224_25227" x1="13.3634" y1="7.56312" x2="22.5696" y2="4.26193" gradientUnits="userSpaceOnUse">
<stop stop-color="#F0668D"/>
<stop offset="1" stop-color="#E61A4C"/>
</linearGradient>
</defs>
</svg>
