<?xml version="1.0" encoding="UTF-8"?>
<svg xmlns="http://www.w3.org/2000/svg" version="1.1" xmlns:xlink="http://www.w3.org/1999/xlink" viewBox="0 0 170 55">
  <defs>
    <style>
      .cls-1 {
        fill: url(#linear-gradient-2);
      }

      .cls-2 {
        mask: url(#mask-1);
      }

      .cls-3, .cls-4 {
        fill: #fff;
      }

      .cls-5 {
        mask: url(#mask);
      }

      .cls-4 {
        fill-rule: evenodd;
      }

      .cls-6 {
        fill: url(#linear-gradient-4);
      }

      .cls-7 {
        mask: url(#mask-2);
      }

      .cls-8 {
        fill: url(#linear-gradient-3);
      }

      .cls-9 {
        fill: url(#linear-gradient-5);
      }

      .cls-10 {
        mask: url(#mask-4);
      }

      .cls-11 {
        fill: url(#linear-gradient);
      }

      .cls-12 {
        mask: url(#mask-3);
      }
    </style>
    <mask id="mask" x="43.8" y="16.6" width="16.6" height="39.9" maskUnits="userSpaceOnUse">
      <g id="mask0_224_25227">
        <path class="cls-3" d="M43.8,28.8l4.5,17.8s2.4,9.8,12.1,7.9l-7.2-29.9s-1.7-6.1-6.4-8.1l-3.1,12.3Z"/>
      </g>
    </mask>
    <linearGradient id="linear-gradient" x1="52.1" y1="13.6" x2="52.1" y2="29.8" gradientTransform="translate(0 56) scale(1 -1)" gradientUnits="userSpaceOnUse">
      <stop offset="0" stop-color="#ef5123"/>
      <stop offset="1" stop-color="#4e461c"/>
    </linearGradient>
    <mask id="mask-1" x="30.2" y="16" width="16.7" height="38.1" maskUnits="userSpaceOnUse">
      <g id="mask1_224_25227">
        <path class="cls-3" d="M34.4,24.6l-4.1,17,2.9,12.1v.3c4.9-1.7,6.2-7.4,6.2-7.4l7.6-30.1c-1.2-.4-2.2-.6-3.2-.6-7,0-9.4,8.6-9.4,8.6Z"/>
      </g>
    </mask>
    <linearGradient id="linear-gradient-2" x1="38.6" y1="15.4" x2="38.6" y2="31.4" gradientTransform="translate(0 56) scale(1 -1)" gradientUnits="userSpaceOnUse">
      <stop offset="0" stop-color="#184722"/>
      <stop offset="1" stop-color="#77bf43"/>
    </linearGradient>
    <mask id="mask-2" x="4.6" y="11.5" width="40.7" height="50.1" maskUnits="userSpaceOnUse">
      <g id="mask2_224_25227">
        <path class="cls-3" d="M16.6,28.8l4.5,17.8s2.4,10.1,12.1,7.5l-7.1-29.5s-1.7-6.1-6.4-8.1l-3.1,12.3Z"/>
      </g>
    </mask>
    <linearGradient id="linear-gradient-3" x1="21.4" y1="30.2" x2="29.6" y2="5.4" gradientTransform="translate(0 56) scale(1 -1)" gradientUnits="userSpaceOnUse">
      <stop offset="0" stop-color="#056438"/>
      <stop offset="1" stop-color="#39b671"/>
    </linearGradient>
    <mask id="mask-3" x="-12.1" y="10" width="44" height="52.3" maskUnits="userSpaceOnUse">
      <g id="mask3_224_25227">
        <path class="cls-3" d="M7.2,24.6L0,54.5c9.7,1.9,12.1-7.9,12.1-7.9l7.6-30.1c-1.2-.4-2.2-.6-3.2-.6-7,0-9.4,8.6-9.4,8.6Z"/>
      </g>
    </mask>
    <linearGradient id="linear-gradient-4" x1="5.8" y1="7.5" x2="13.5" y2="30.8" gradientTransform="translate(0 56) scale(1 -1)" gradientUnits="userSpaceOnUse">
      <stop offset="0" stop-color="#06486d"/>
      <stop offset="1" stop-color="#5ac8e5"/>
    </linearGradient>
    <mask id="mask-4" x="6.7" y="-5.3" width="23.9" height="22" maskUnits="userSpaceOnUse">
      <g id="mask4_224_25227">
        <path class="cls-3" d="M25.7.4c-2.4,1.3-6.2,1.8-10,3.2-3.8,1.4-5.4,7.7-5.4,7.7.5-.9,4.6-1.1,4.6-1.1,7.6-.7,9.5-5.9,10.8-8.4C26.4.4,27,0,27,0c0,0,0,0-.1,0-.2,0-.5,0-1.2.4Z"/>
      </g>
    </mask>
    <linearGradient id="linear-gradient-5" x1="13.4" y1="48.4" x2="22.6" y2="51.7" gradientTransform="translate(0 56) scale(1 -1)" gradientUnits="userSpaceOnUse">
      <stop offset="0" stop-color="#f0668d"/>
      <stop offset="1" stop-color="#e61a4c"/>
    </linearGradient>
  </defs>
  <!-- Generator: Adobe Illustrator 28.6.0, SVG Export Plug-In . SVG Version: 1.2.0 Build 709)  -->
  <g>
    <g id="Layer_1">
      <path class="cls-3" d="M77,43.3c-.4,0-.6-.1-.7-.3-.1-.2-.2-.5-.2-1v-6c-1.2,1.2-2.3,1.9-3.9,2.5v1.6c0,1.1-.5,1.9-1.5,2.6-.8.5-1.8.7-2.8.7s-1.6-.2-2.3-.5c-.9-.4-1.3-1-1.3-1.8,0-1.6,1.1-2.5,3.2-2.9,2.3-.2,3.8-.5,4.7-1,.8-.3,1.6-.8,2.4-1.4.9-.8,1.4-1.5,1.5-2.2v-.5c0-1.7-.7-3-2.2-3.9-1.3-.8-2.9-1.1-4.8-1.1s-4,.4-5.3,1.2c-1.6,1-2.5,2.5-2.6,4.6h3.9c.2-1.8,1.5-2.8,3.9-2.8s3.6.8,3.6,2.4-.5,1.6-1.6,1.9c-.4,0-.9.2-1.7.3-.9.1-1.6.2-2,.3-2.1.2-3.6.6-4.6,1.2-1.4.9-2.2,2.3-2.2,4.2s.6,2.9,1.8,3.8c1.1.8,2.5,1.3,4.2,1.3,2.6,0,4.6-.7,6-2.1.3,1.4,1.3,2.1,3,2.1s1.6-.1,2.4-.4v-2.6c-.3,0-.4,0-.5,0h-.4ZM88.3,28c-1.3,0-3.4.5-4.4,1v3.1c.8-.6,2.7-1.2,3.9-1.2s2.7.6,3.6,1.9c.8,1.2,1.2,2.6,1.2,4.2s-.4,3.1-1.1,4.2c-.9,1.3-2.1,1.9-3.8,1.9s-2.7-.6-3.6-1.7c-.9-1.1-1.3-2.6-1.3-4.3v-8.7h-3.7v23.6h3.9v-8.6h0c1.1,1.8,3.1,2.7,5.9,2.7s4.3-.9,5.7-2.8c1.2-1.7,1.8-3.8,1.8-6.3s-.7-4.8-2-6.5c-1.5-1.8-3.5-2.7-6.1-2.7ZM110.9,37.1c-.8-.6-2.1-1.1-3.9-1.5-2.2-.5-3.5-.8-3.9-.9-1.2-.4-1.8-1-1.8-1.9,0-1.2,1.1-1.8,3.2-1.8s3.2.8,3.6,2.3h4c-.2-1.8-1-3.2-2.5-4.1-1.3-.8-2.9-1.2-4.8-1.2s-3.5.4-4.8,1.1c-1.6.9-2.5,2.2-2.5,3.9s.6,2.8,1.8,3.6c.8.6,2.1,1.1,3.9,1.5,2.3.5,3.6.8,3.9.9,1.2.4,1.8,1.1,1.8,1.9,0,1.5-1.2,2.3-3.9,2.3s-3.8-1-4-3h-3.9c0,2,.8,3.5,2.3,4.5,1.4,1,3.2,1.5,5.5,1.5s3.9-.4,5.3-1.3c1.7-1,2.5-2.4,2.5-4.3s-.6-2.7-1.8-3.6ZM120.3,42.9c-.8,0-1.3-.2-1.6-.6-.2-.3-.3-.9-.3-1.8v-9.2h3.5v-2.8h-3.5v-5.2h-3.9v5.2h-2.9l1.1,2.8h1.8v10.2c0,1.6.4,2.7.9,3.3.7.8,2,1.1,3.9,1.1s1.4,0,2.5-.2l-.8-2.9c-.4,0-.5,0-.8,0ZM129.6,28c-1.9,0-3.5.5-4.9,1.6-1.3,1-2.5,2.8-3.1,4.5h3.7c.9-2,1.7-3,4.4-3,1.2,0,2.3.5,3.1,1.4.7.9,1.1,1.8,1.2,3.1h-12.7c0,.5-.1,1-.1,1.5,0,2.7.8,5,2.2,6.6,1.5,1.7,3.6,2.5,6.4,2.5s3.6-.5,5-1.5c1.5-1,2.5-2.5,2.8-4.3h-3.6c-.7,1.9-2.1,2.9-4.2,2.9s-2.7-.5-3.5-1.5c-.8-.9-1.2-2.2-1.2-3.7h12.8c.3-2.6-.2-4.8-1.8-6.8-1.6-2.1-3.7-3.1-6.4-3.1ZM152.3,22v8.8h0c-1.1-1.8-3.1-2.7-5.8-2.7s-3.8.7-5.2,2.1c-1.6,1.6-2.4,3.9-2.4,6.8s.7,4.9,2,6.5c1.4,1.8,3.5,2.7,6.2,2.7s3.4-.8,4.4-1.3v-3.2c-.8.7-2.7,1.5-3.9,1.5s-2.8-.6-3.7-1.8c-.8-1.1-1.1-2.4-1.1-4s.4-3.2,1.1-4.3c.9-1.3,2.2-2,3.8-2s2.7.5,3.5,1.6c.9,1.1,1.3,2.6,1.3,4.5v.2s0,8.3,0,8.3h3.7v-23.7h-3.8Z"/>
      <g class="cls-5">
        <path class="cls-11" d="M60.5,16.6h-16.6v39.9h16.6V16.6Z"/>
      </g>
      <g class="cls-2">
        <path class="cls-1" d="M47,16h-16.7v38.1h16.7V16Z"/>
      </g>
      <g class="cls-7">
        <path class="cls-8" d="M31.6,11.5l13.7,41.2-27,9L4.6,20.5l27-9Z"/>
      </g>
      <g class="cls-12">
        <path class="cls-6" d="M-12.1,52.4L2,10l29.9,9.9-14.1,42.4-29.9-9.9Z"/>
      </g>
      <g class="cls-10">
        <path class="cls-9" d="M6.7,1.3l18.4-6.6,5.5,15.3-18.4,6.6L6.7,1.3Z"/>
      </g>
      <path class="cls-4" d="M165.1,31.9c-2.7,0-4.9-2.2-5-4.9,0-2.7,2.2-4.9,4.9-4.9,2.8,0,5,2.2,5,4.9,0,2.7-2.2,4.9-4.9,4.9ZM169,26.9c0-2.2-1.7-4-3.9-4-2.2,0-4,1.8-4,4,0,2.1,1.8,3.9,3.9,4,2.2,0,4-1.7,4-3.9Z"/>
      <path class="cls-4" d="M166.5,27c.8.6.5,1.4.7,2.2h-1.2c0-.3,0-.6-.1-.8,0-.7-.3-.9-.9-.9h-.7v1.7h-1.2v-4.6h1c.5,0,.9,0,1.4,0,.2,0,.4,0,.7,0,.4.1.8.4.9.9.1.5,0,1-.4,1.3,0,0-.1,0-.2.1ZM164.4,26.6c.4,0,.7,0,1.1,0,.3,0,.5-.2.5-.5,0-.3-.2-.5-.5-.5-.4,0-.7,0-1.1,0,0,.3,0,.7,0,1Z"/>
    </g>
  </g>
</svg>