<?xml version="1.0" encoding="UTF-8"?>
<svg xmlns="http://www.w3.org/2000/svg" xmlns:xlink="http://www.w3.org/1999/xlink" width="30px" height="27px" viewBox="0 0 30 27" version="1.1">
<defs>
<clipPath id="clip1">
  <path d="M 0 0 L 29.6875 0 L 29.6875 27 L 0 27 Z M 0 0 "/>
</clipPath>
<linearGradient id="linear0" gradientUnits="userSpaceOnUse" x1="33.1518" y1="59.7457" x2="33.1518" y2="0.255067" gradientTransform="matrix(0.447761,0,0,0.45,0,0)">
<stop offset="0" style="stop-color:rgb(21.568627%,32.54902%,66.27451%);stop-opacity:1;"/>
<stop offset="1" style="stop-color:rgb(56.862745%,69.411765%,100%);stop-opacity:1;"/>
</linearGradient>
</defs>
<g id="surface1">
<g clip-path="url(#clip1)" clip-rule="nonzero">
<path style=" stroke:none;fill-rule:evenodd;fill:url(#linear0);" d="M 10.65625 11.089844 C 9.886719 10.457031 9.117188 9.828125 8.351562 9.203125 C 7.191406 8.253906 6.035156 7.308594 4.875 6.359375 C 4.371094 5.949219 4.296875 5.476562 4.644531 4.917969 C 5.144531 4.117188 5.652344 3.320312 6.152344 2.523438 C 6.214844 2.425781 6.273438 2.324219 6.359375 2.171875 C 4.917969 2.273438 3.527344 2.371094 2.105469 2.472656 C 2.503906 8.214844 2.902344 13.921875 3.300781 19.648438 C 3.421875 19.648438 3.519531 19.65625 3.613281 19.648438 C 4.683594 19.539062 5.757812 19.4375 6.828125 19.320312 C 7.425781 19.25 7.914062 19.585938 7.996094 20.152344 C 8.074219 20.683594 7.710938 21.15625 7.132812 21.226562 C 6.210938 21.339844 5.285156 21.421875 4.359375 21.515625 C 4.066406 21.546875 3.773438 21.578125 3.445312 21.613281 C 3.472656 22.078125 3.496094 22.519531 3.523438 22.960938 C 3.554688 23.40625 3.59375 23.851562 3.628906 24.332031 C 3.90625 24.316406 4.171875 24.308594 4.433594 24.289062 C 5.566406 24.203125 6.699219 24.109375 7.832031 24.027344 C 8.414062 23.988281 8.863281 24.339844 8.917969 24.855469 C 8.980469 25.4375 8.644531 25.875 8.035156 25.945312 C 7.386719 26.019531 6.734375 26.054688 6.085938 26.105469 C 5.089844 26.183594 4.09375 26.257812 3.097656 26.328125 C 2.972656 26.339844 2.84375 26.347656 2.714844 26.34375 C 2.21875 26.332031 1.820312 25.972656 1.78125 25.476562 C 1.691406 24.367188 1.617188 23.253906 1.539062 22.144531 C 1.445312 20.835938 1.355469 19.527344 1.261719 18.21875 C 1.175781 16.96875 1.09375 15.71875 1.003906 14.46875 C 0.894531 12.875 0.78125 11.277344 0.671875 9.683594 C 0.582031 8.433594 0.5 7.183594 0.410156 5.933594 C 0.320312 4.613281 0.226562 3.296875 0.132812 1.976562 C 0.125 1.867188 0.117188 1.757812 0.117188 1.648438 C 0.105469 1.070312 0.460938 0.660156 1.035156 0.613281 C 2.050781 0.53125 3.0625 0.457031 4.082031 0.386719 C 5.402344 0.292969 6.722656 0.207031 8.046875 0.117188 C 8.746094 0.0703125 9.253906 0.566406 9.140625 1.21875 C 9.109375 1.40625 9.011719 1.59375 8.90625 1.757812 C 8.222656 2.863281 7.523438 3.960938 6.832031 5.058594 C 6.78125 5.140625 6.730469 5.226562 6.667969 5.332031 C 7.0625 5.65625 7.453125 5.976562 7.839844 6.296875 C 9.269531 7.460938 10.691406 8.636719 12.128906 9.789062 C 12.605469 10.167969 12.753906 10.59375 12.621094 11.195312 C 12.277344 12.703125 11.976562 14.222656 11.660156 15.742188 C 11.648438 15.789062 11.648438 15.835938 11.691406 15.914062 C 13.101562 14.046875 14.507812 12.179688 15.933594 10.289062 C 15.847656 10.183594 15.769531 10.085938 15.6875 9.988281 C 14.375 8.449219 13.058594 6.914062 11.742188 5.375 C 11.257812 4.804688 11.246094 4.410156 11.703125 3.835938 C 12.535156 2.789062 13.382812 1.746094 14.207031 0.691406 C 14.5 0.324219 14.847656 0.164062 15.3125 0.199219 C 16.859375 0.320312 18.410156 0.429688 19.957031 0.539062 C 21.230469 0.628906 22.503906 0.710938 23.773438 0.800781 C 25.410156 0.914062 27.046875 1.03125 28.683594 1.152344 C 29.222656 1.195312 29.59375 1.601562 29.574219 2.15625 C 29.546875 2.871094 29.484375 3.585938 29.4375 4.296875 C 29.347656 5.585938 29.253906 6.875 29.164062 8.164062 C 29.050781 9.769531 28.9375 11.375 28.824219 12.984375 C 28.738281 14.210938 28.65625 15.441406 28.570312 16.671875 C 28.457031 18.296875 28.34375 19.921875 28.230469 21.550781 C 28.140625 22.808594 28.058594 24.070312 27.972656 25.328125 C 27.957031 25.535156 27.941406 25.742188 27.921875 25.953125 C 27.871094 26.539062 27.457031 26.917969 26.867188 26.882812 C 26.335938 26.851562 25.804688 26.792969 25.273438 26.746094 C 24.0625 26.632812 22.851562 26.519531 21.640625 26.410156 C 20.203125 26.277344 18.765625 26.144531 17.328125 26.011719 C 16.148438 25.902344 14.964844 25.796875 13.785156 25.691406 C 12.988281 25.617188 12.1875 25.542969 11.390625 25.46875 C 10.941406 25.421875 10.644531 25.179688 10.5 24.75 C 10 23.242188 9.492188 21.738281 9.007812 20.226562 C 8.890625 19.867188 8.902344 19.492188 8.984375 19.113281 C 9.535156 16.53125 10.074219 13.945312 10.613281 11.363281 C 10.632812 11.285156 10.640625 11.203125 10.65625 11.089844 Z M 27.589844 3.011719 C 23.542969 2.726562 19.515625 2.445312 15.507812 2.160156 C 14.847656 2.984375 14.222656 3.773438 13.59375 4.558594 C 13.667969 4.648438 13.714844 4.710938 13.765625 4.769531 C 15.113281 6.347656 16.464844 7.921875 17.808594 9.5 C 18.238281 10 18.25 10.414062 17.867188 10.925781 C 15.9375 13.484375 14.007812 16.042969 12.078125 18.601562 C 11.710938 19.09375 11.34375 19.585938 10.976562 20.074219 C 11.371094 21.257812 11.757812 22.421875 12.144531 23.597656 C 16.792969 24.019531 21.414062 24.441406 26.070312 24.867188 C 26.132812 23.960938 26.191406 23.105469 26.253906 22.226562 C 25.640625 22.167969 25.070312 22.109375 24.5 22.054688 C 23.378906 21.945312 22.257812 21.84375 21.132812 21.734375 C 19.796875 21.605469 18.460938 21.46875 17.121094 21.339844 C 16.070312 21.238281 15.015625 21.140625 13.960938 21.035156 C 13.5 20.988281 13.148438 20.617188 13.113281 20.175781 C 13.070312 19.675781 13.347656 19.25 13.816406 19.144531 C 13.996094 19.101562 14.191406 19.113281 14.375 19.132812 C 15.910156 19.277344 17.445312 19.433594 18.980469 19.582031 C 21.027344 19.78125 23.074219 19.980469 25.121094 20.175781 C 25.53125 20.214844 25.941406 20.246094 26.386719 20.285156 C 26.789062 14.523438 27.1875 8.789062 27.589844 3.011719 Z M 27.589844 3.011719 "/>
</g>
</g>
</svg>
